<mxfile host="app.diagrams.net" modified="2023-08-28T11:29:29.300Z" agent="Mozilla/5.0 (Windows NT 10.0; Win64; x64) AppleWebKit/537.36 (KHTML, like Gecko) Chrome/116.0.0.0 Safari/537.36 Edg/116.0.1938.62" etag="TLJEr4nEVdrfqSuJCMX8" version="21.6.9" type="device">
  <diagram name="Page-1" id="52a04d89-c75d-2922-d76d-85b35f80e030">
    <mxGraphModel dx="727" dy="401" grid="1" gridSize="10" guides="1" tooltips="1" connect="1" arrows="1" fold="1" page="1" pageScale="1" pageWidth="1100" pageHeight="850" background="none" math="0" shadow="0">
      <root>
        <mxCell id="0" />
        <mxCell id="1" parent="0" />
        <mxCell id="1fdf3b25b50cf41e-1" value="2.1" style="swimlane;html=1;fontStyle=0;childLayout=stackLayout;horizontal=1;startSize=26;fillColor=#e0e0e0;horizontalStack=0;resizeParent=1;resizeLast=0;collapsible=1;marginBottom=0;swimlaneFillColor=#ffffff;align=center;rounded=1;shadow=0;comic=0;labelBackgroundColor=none;strokeWidth=1;fontFamily=Helvetica;fontSize=12" parent="1" vertex="1">
          <mxGeometry x="600" y="250" width="140" height="70" as="geometry" />
        </mxCell>
        <mxCell id="1fdf3b25b50cf41e-2" value="Potvrda o uspješnoj&amp;nbsp;&lt;br&gt;transakciji" style="text;html=1;strokeColor=none;fillColor=none;spacingLeft=4;spacingRight=4;whiteSpace=wrap;overflow=hidden;rotatable=0;points=[[0,0.5],[1,0.5]];portConstraint=eastwest;align=center;fontFamily=Helvetica;fontStyle=0" parent="1fdf3b25b50cf41e-1" vertex="1">
          <mxGeometry y="26" width="140" height="44" as="geometry" />
        </mxCell>
        <mxCell id="1fdf3b25b50cf41e-7" value="1.0" style="swimlane;html=1;fontStyle=0;childLayout=stackLayout;horizontal=1;startSize=26;fillColor=#e0e0e0;horizontalStack=0;resizeParent=1;resizeLast=0;collapsible=1;marginBottom=0;swimlaneFillColor=#ffffff;align=center;rounded=1;shadow=0;comic=0;labelBackgroundColor=none;strokeWidth=1;fontFamily=Helvetica;fontSize=12" parent="1" vertex="1">
          <mxGeometry x="160" y="50" width="140" height="70" as="geometry" />
        </mxCell>
        <mxCell id="1fdf3b25b50cf41e-8" value="Kupovina premium&lt;br&gt;sadržaja" style="text;html=1;strokeColor=none;fillColor=none;spacingLeft=4;spacingRight=4;whiteSpace=wrap;overflow=hidden;rotatable=0;points=[[0,0.5],[1,0.5]];portConstraint=eastwest;align=center;fontFamily=Helvetica;fontStyle=0" parent="1fdf3b25b50cf41e-7" vertex="1">
          <mxGeometry y="26" width="140" height="44" as="geometry" />
        </mxCell>
        <mxCell id="1fdf3b25b50cf41e-9" value="1.1" style="swimlane;html=1;fontStyle=0;childLayout=stackLayout;horizontal=1;startSize=26;fillColor=#e0e0e0;horizontalStack=0;resizeParent=1;resizeLast=0;collapsible=1;marginBottom=0;swimlaneFillColor=#ffffff;align=center;rounded=1;shadow=0;comic=0;labelBackgroundColor=none;strokeWidth=1;fontFamily=Helvetica;fontSize=12" parent="1" vertex="1">
          <mxGeometry x="160" y="250" width="140" height="52" as="geometry" />
        </mxCell>
        <mxCell id="1fdf3b25b50cf41e-10" value="Validacija kupovine" style="text;html=1;strokeColor=none;fillColor=none;spacingLeft=4;spacingRight=4;whiteSpace=wrap;overflow=hidden;rotatable=0;points=[[0,0.5],[1,0.5]];portConstraint=eastwest;align=center;fontFamily=Helvetica;fontStyle=0" parent="1fdf3b25b50cf41e-9" vertex="1">
          <mxGeometry y="26" width="140" height="26" as="geometry" />
        </mxCell>
        <mxCell id="1fdf3b25b50cf41e-13" value="2.0" style="swimlane;html=1;fontStyle=0;childLayout=stackLayout;horizontal=1;startSize=26;fillColor=#e0e0e0;horizontalStack=0;resizeParent=1;resizeLast=0;collapsible=1;marginBottom=0;swimlaneFillColor=#ffffff;align=center;rounded=1;shadow=0;comic=0;labelBackgroundColor=none;strokeWidth=1;fontFamily=Helvetica;fontSize=12" parent="1" vertex="1">
          <mxGeometry x="350" y="350" width="140" height="70" as="geometry" />
        </mxCell>
        <mxCell id="1fdf3b25b50cf41e-14" value="Sustav&lt;br&gt;naplate" style="text;html=1;strokeColor=none;fillColor=none;spacingLeft=4;spacingRight=4;whiteSpace=wrap;overflow=hidden;rotatable=0;points=[[0,0.5],[1,0.5]];portConstraint=eastwest;align=center;fontFamily=Helvetica;fontStyle=0" parent="1fdf3b25b50cf41e-13" vertex="1">
          <mxGeometry y="26" width="140" height="44" as="geometry" />
        </mxCell>
        <mxCell id="1fdf3b25b50cf41e-26" value="Korisnik" style="whiteSpace=wrap;html=1;rounded=0;shadow=0;comic=0;labelBackgroundColor=none;strokeWidth=1;fontFamily=Helvetica;fontSize=12;align=center;fontStyle=0" parent="1" vertex="1">
          <mxGeometry x="360" y="170" width="120" height="50" as="geometry" />
        </mxCell>
        <mxCell id="Bz3G8Ywwi2mu5YJk09Ef-3" value="" style="endArrow=classic;html=1;rounded=0;entryX=1;entryY=0.5;entryDx=0;entryDy=0;fontFamily=Helvetica;fontStyle=0;exitX=0.75;exitY=0;exitDx=0;exitDy=0;" parent="1" source="1fdf3b25b50cf41e-26" edge="1">
          <mxGeometry width="50" height="50" relative="1" as="geometry">
            <mxPoint x="470" y="170" as="sourcePoint" />
            <mxPoint x="300" y="66.79999999999994" as="targetPoint" />
            <Array as="points">
              <mxPoint x="450" y="160" />
              <mxPoint x="450" y="130" />
              <mxPoint x="450" y="67" />
            </Array>
          </mxGeometry>
        </mxCell>
        <mxCell id="Bz3G8Ywwi2mu5YJk09Ef-4" value="Odabir željenog &lt;br&gt;premium sadržaja" style="edgeLabel;html=1;align=center;verticalAlign=middle;resizable=0;points=[];fontFamily=Helvetica;fontStyle=0" parent="Bz3G8Ywwi2mu5YJk09Ef-3" vertex="1" connectable="0">
          <mxGeometry x="-0.1717" y="1" relative="1" as="geometry">
            <mxPoint x="-76" y="-18" as="offset" />
          </mxGeometry>
        </mxCell>
        <mxCell id="Bz3G8Ywwi2mu5YJk09Ef-5" value="" style="endArrow=classic;html=1;rounded=0;entryX=0.338;entryY=0.03;entryDx=0;entryDy=0;fontFamily=Helvetica;fontStyle=0;entryPerimeter=0;" parent="1" edge="1">
          <mxGeometry width="50" height="50" relative="1" as="geometry">
            <mxPoint x="300" y="100.35" as="sourcePoint" />
            <mxPoint x="400.55999999999995" y="170" as="targetPoint" />
            <Array as="points">
              <mxPoint x="400" y="100" />
            </Array>
          </mxGeometry>
        </mxCell>
        <mxCell id="Bz3G8Ywwi2mu5YJk09Ef-6" value="Prikaz dostupnih&lt;br&gt;premium sadržaja" style="edgeLabel;html=1;align=center;verticalAlign=middle;resizable=0;points=[];fontFamily=Helvetica;fontStyle=0" parent="Bz3G8Ywwi2mu5YJk09Ef-5" vertex="1" connectable="0">
          <mxGeometry x="0.491" y="4" relative="1" as="geometry">
            <mxPoint x="-54" y="-7" as="offset" />
          </mxGeometry>
        </mxCell>
        <mxCell id="Bz3G8Ywwi2mu5YJk09Ef-9" value="" style="endArrow=classic;html=1;rounded=0;entryX=0.5;entryY=0;entryDx=0;entryDy=0;fontFamily=Helvetica;fontStyle=0" parent="1" target="1fdf3b25b50cf41e-9" edge="1">
          <mxGeometry width="50" height="50" relative="1" as="geometry">
            <mxPoint x="230" y="120" as="sourcePoint" />
            <mxPoint x="460" y="180" as="targetPoint" />
          </mxGeometry>
        </mxCell>
        <mxCell id="Bz3G8Ywwi2mu5YJk09Ef-11" value="Detalji kupovine&lt;br&gt;sadržaja" style="edgeLabel;html=1;align=center;verticalAlign=middle;resizable=0;points=[];fontFamily=Helvetica;fontStyle=0" parent="Bz3G8Ywwi2mu5YJk09Ef-9" vertex="1" connectable="0">
          <mxGeometry x="-0.2519" y="1" relative="1" as="geometry">
            <mxPoint as="offset" />
          </mxGeometry>
        </mxCell>
        <mxCell id="Bz3G8Ywwi2mu5YJk09Ef-12" value="" style="endArrow=classic;html=1;rounded=0;exitX=0.506;exitY=0.992;exitDx=0;exitDy=0;exitPerimeter=0;entryX=0;entryY=0.5;entryDx=0;entryDy=0;fontFamily=Helvetica;fontStyle=0" parent="1" source="1fdf3b25b50cf41e-10" target="1fdf3b25b50cf41e-14" edge="1">
          <mxGeometry width="50" height="50" relative="1" as="geometry">
            <mxPoint x="410" y="230" as="sourcePoint" />
            <mxPoint x="460" y="180" as="targetPoint" />
            <Array as="points">
              <mxPoint x="230" y="398" />
            </Array>
          </mxGeometry>
        </mxCell>
        <mxCell id="Bz3G8Ywwi2mu5YJk09Ef-13" value="Odabir načina plaćanja&lt;br&gt;(kreditna kartica, PayPal)" style="edgeLabel;html=1;align=center;verticalAlign=middle;resizable=0;points=[];fontFamily=Helvetica;fontStyle=0" parent="Bz3G8Ywwi2mu5YJk09Ef-12" vertex="1" connectable="0">
          <mxGeometry x="-0.2987" relative="1" as="geometry">
            <mxPoint y="-28" as="offset" />
          </mxGeometry>
        </mxCell>
        <mxCell id="Bz3G8Ywwi2mu5YJk09Ef-14" value="" style="endArrow=classic;html=1;rounded=0;exitX=0.5;exitY=0;exitDx=0;exitDy=0;entryX=0.5;entryY=1;entryDx=0;entryDy=0;fontFamily=Helvetica;fontStyle=0" parent="1" source="1fdf3b25b50cf41e-13" target="1fdf3b25b50cf41e-26" edge="1">
          <mxGeometry width="50" height="50" relative="1" as="geometry">
            <mxPoint x="410" y="230" as="sourcePoint" />
            <mxPoint x="460" y="180" as="targetPoint" />
          </mxGeometry>
        </mxCell>
        <mxCell id="Bz3G8Ywwi2mu5YJk09Ef-15" value="Provjera valjanosti i&amp;nbsp;&lt;br&gt;obrada plaćanja" style="edgeLabel;html=1;align=center;verticalAlign=middle;resizable=0;points=[];fontFamily=Helvetica;fontStyle=0" parent="Bz3G8Ywwi2mu5YJk09Ef-14" vertex="1" connectable="0">
          <mxGeometry x="0.2154" y="-2" relative="1" as="geometry">
            <mxPoint y="9" as="offset" />
          </mxGeometry>
        </mxCell>
        <mxCell id="GaY6Qi8bIvVsJX0VfQtg-58" value="3.0" style="swimlane;html=1;fontStyle=0;childLayout=stackLayout;horizontal=1;startSize=26;fillColor=#e0e0e0;horizontalStack=0;resizeParent=1;resizeLast=0;collapsible=1;marginBottom=0;swimlaneFillColor=#ffffff;align=center;rounded=1;shadow=0;comic=0;labelBackgroundColor=none;strokeWidth=1;fontFamily=Helvetica;fontSize=12" vertex="1" parent="1">
          <mxGeometry x="600" y="50" width="140" height="70" as="geometry" />
        </mxCell>
        <mxCell id="GaY6Qi8bIvVsJX0VfQtg-59" value="Sadržaj dostupan u biblioteci korisnika" style="text;html=1;strokeColor=none;fillColor=none;spacingLeft=4;spacingRight=4;whiteSpace=wrap;overflow=hidden;rotatable=0;points=[[0,0.5],[1,0.5]];portConstraint=eastwest;align=center;fontFamily=Helvetica;fontStyle=0" vertex="1" parent="GaY6Qi8bIvVsJX0VfQtg-58">
          <mxGeometry y="26" width="140" height="44" as="geometry" />
        </mxCell>
        <mxCell id="GaY6Qi8bIvVsJX0VfQtg-62" value="" style="endArrow=none;html=1;rounded=0;" edge="1" parent="1">
          <mxGeometry width="50" height="50" relative="1" as="geometry">
            <mxPoint x="480" y="210" as="sourcePoint" />
            <mxPoint x="640" y="210" as="targetPoint" />
          </mxGeometry>
        </mxCell>
        <mxCell id="GaY6Qi8bIvVsJX0VfQtg-63" value="" style="endArrow=classic;html=1;rounded=0;entryX=0.289;entryY=0.021;entryDx=0;entryDy=0;entryPerimeter=0;" edge="1" parent="1" target="1fdf3b25b50cf41e-1">
          <mxGeometry width="50" height="50" relative="1" as="geometry">
            <mxPoint x="640" y="210" as="sourcePoint" />
            <mxPoint x="660" y="250" as="targetPoint" />
          </mxGeometry>
        </mxCell>
        <mxCell id="GaY6Qi8bIvVsJX0VfQtg-64" value="Podaci o transakciji" style="edgeLabel;html=1;align=center;verticalAlign=middle;resizable=0;points=[];" vertex="1" connectable="0" parent="GaY6Qi8bIvVsJX0VfQtg-63">
          <mxGeometry x="0.0727" y="1" relative="1" as="geometry">
            <mxPoint x="-81" y="-22" as="offset" />
          </mxGeometry>
        </mxCell>
        <mxCell id="GaY6Qi8bIvVsJX0VfQtg-66" value="" style="endArrow=classic;html=1;rounded=0;exitX=0.861;exitY=-0.002;exitDx=0;exitDy=0;exitPerimeter=0;" edge="1" parent="1" source="1fdf3b25b50cf41e-1">
          <mxGeometry width="50" height="50" relative="1" as="geometry">
            <mxPoint x="670" y="170" as="sourcePoint" />
            <mxPoint x="720" y="120" as="targetPoint" />
          </mxGeometry>
        </mxCell>
        <mxCell id="GaY6Qi8bIvVsJX0VfQtg-67" value="Dodavanje sadržaja &lt;br&gt;u biblioteku" style="edgeLabel;html=1;align=center;verticalAlign=middle;resizable=0;points=[];" vertex="1" connectable="0" parent="GaY6Qi8bIvVsJX0VfQtg-66">
          <mxGeometry x="-0.0627" y="-1" relative="1" as="geometry">
            <mxPoint as="offset" />
          </mxGeometry>
        </mxCell>
        <mxCell id="GaY6Qi8bIvVsJX0VfQtg-70" value="" style="endArrow=classic;html=1;rounded=0;exitX=-0.026;exitY=0.769;exitDx=0;exitDy=0;exitPerimeter=0;entryX=1;entryY=0.25;entryDx=0;entryDy=0;" edge="1" parent="1" source="GaY6Qi8bIvVsJX0VfQtg-59" target="1fdf3b25b50cf41e-26">
          <mxGeometry width="50" height="50" relative="1" as="geometry">
            <mxPoint x="500" y="140" as="sourcePoint" />
            <mxPoint x="550" y="90" as="targetPoint" />
          </mxGeometry>
        </mxCell>
        <mxCell id="GaY6Qi8bIvVsJX0VfQtg-71" value="Premium&amp;nbsp;&lt;br&gt;sadržaj" style="edgeLabel;html=1;align=center;verticalAlign=middle;resizable=0;points=[];" vertex="1" connectable="0" parent="GaY6Qi8bIvVsJX0VfQtg-70">
          <mxGeometry x="-0.0403" y="3" relative="1" as="geometry">
            <mxPoint x="8" y="-7" as="offset" />
          </mxGeometry>
        </mxCell>
      </root>
    </mxGraphModel>
  </diagram>
</mxfile>
